<?xml version="1.0" encoding="utf-8"?>
<!-- Generator: Adobe Adobe Illustrator 24.2.0, SVG Export Plug-In . SVG Version: 6.00 Build 0)  -->
<svg version="1.1" xmlns="http://www.w3.org/2000/svg" xmlns:xlink="http://www.w3.org/1999/xlink" x="0px" y="0px" width="24px"
	 height="24px" viewBox="0 0 24 24" style="enable-background:new 0 0 24 24;" xml:space="preserve">
<style type="text/css">
	.st0{fill:#FFFFFF;stroke:#000000;stroke-linecap:round;stroke-linejoin:round;stroke-miterlimit:10;}
</style>
<g id="Ebene_1">
	<rect x="2.02" y="2.67" class="st0" width="20.35" height="16.5"/>
	<path class="st0" d="M2.59,6.29c6.6,0.01,13.19,0.02,19.79,0.03"/>
	<ellipse class="st0" cx="4.85" cy="4.58" rx="0.55" ry="0.45"/>
</g>
<g id="Ebene_7">
</g>
<g id="Ebene_5">
</g>
<g id="Ebene_3">
	<rect x="7.56" y="9.22" class="st0" width="9.85" height="6.6"/>
</g>
<g id="Ebene_8">
	<path class="st0" d="M5.82,10.84c-0.7,0.66-1.4,1.31-2.11,1.97c0.67,0.46,1.34,0.92,2,1.39c0,0.01,0,0.01,0,0.02"/>
</g>
<g id="Ebene_8_Kopie">
	<path class="st0" d="M18.97,10.84c0.67,0.66,1.33,1.31,2,1.97c-0.63,0.46-1.27,0.92-1.9,1.39c0,0.01,0,0.01,0,0.02"/>
</g>
<g id="Ebene_6">
</g>
<g id="Ebene_4">
</g>
<g id="Ebene_2">
</g>
</svg>
